<svg width="150" height="195" viewBox="0 0 150 195" fill="none" xmlns="http://www.w3.org/2000/svg">
<path d="M150 46.3393H149.038V16.9878C149.038 12.4824 147.432 8.16147 144.572 4.97563C141.713 1.78979 137.834 4.97435e-06 133.79 0H77.9749C73.9309 -8.5274e-06 70.0526 1.78976 67.193 4.97559C64.3335 8.16142 62.7271 12.4823 62.7271 16.9878V178.012C62.727 182.518 64.3335 186.839 67.193 190.024C70.0525 193.21 73.9308 195 77.9748 195H133.79C137.834 195 141.713 193.21 144.572 190.024C147.432 186.839 149.038 182.518 149.038 178.012V67.2322H150L150 46.3393Z" fill="#3F3D56"/>
<path d="M146.364 17.2289V177.771C146.364 181.131 145.161 184.353 143.019 186.728C140.877 189.104 137.972 190.439 134.943 190.439H78.694C75.6649 190.439 72.76 189.104 70.6181 186.728C68.4763 184.353 67.273 181.131 67.2729 177.771V17.2289C67.273 13.8693 68.4763 10.6473 70.6182 8.27171C72.76 5.8961 75.6649 4.56147 78.694 4.5614H85.5176C85.1823 5.47528 85.0547 6.46654 85.1458 7.44799C85.237 8.42945 85.5442 9.37102 86.0404 10.1899C86.5367 11.0087 87.2067 11.6798 87.9917 12.144C88.7766 12.6083 89.6524 12.8514 90.5419 12.8522H122.612C123.502 12.8514 124.378 12.6082 125.163 12.144C125.948 11.6798 126.618 11.0087 127.114 10.1899C127.61 9.371 127.917 8.42944 128.009 7.44799C128.1 6.46653 127.972 5.47528 127.637 4.5614H134.943C137.972 4.56146 140.877 5.8961 143.019 8.27171C145.16 10.6473 146.364 13.8693 146.364 17.2289V17.2289Z" fill="white"/>
<path d="M128.182 86.1621C127.807 86.3839 127.425 86.5939 127.037 86.792C126.683 86.9727 126.324 87.1426 125.959 87.3014C125.826 87.3589 125.69 87.4164 125.555 87.4739C124.483 87.9137 123.381 88.2571 122.262 88.501C121.707 88.6242 121.145 88.721 120.576 88.7913C120.107 88.8515 119.632 88.8944 119.153 88.92C118.811 88.9392 118.47 88.9474 118.126 88.9474C116.764 88.948 115.405 88.8041 114.067 88.5174C113.719 88.4462 113.377 88.3613 113.036 88.2682C111.384 87.8205 109.786 87.1531 108.273 86.2798C108.137 86.2032 108.002 86.121 107.866 86.0416C107.665 85.9211 107.469 85.7951 107.273 85.6636C107.367 85.5157 107.469 85.3706 107.573 85.2282C108.706 83.64 110.122 82.3397 111.73 81.412C113.337 80.4843 115.099 79.9501 116.9 79.8442C118.702 79.7382 120.504 80.0629 122.187 80.7971C123.871 81.5313 125.398 82.6585 126.671 84.1053C127.113 84.6066 127.522 85.1429 127.896 85.7102C127.995 85.8581 128.09 86.0087 128.182 86.1621Z" fill="#4A90E2"/>
<path d="M118.636 74.1228C124.41 74.1228 129.091 69.0173 129.091 62.7193C129.091 56.4213 124.41 51.3158 118.636 51.3158C112.862 51.3158 108.182 56.4213 108.182 62.7193C108.182 69.0173 112.862 74.1228 118.636 74.1228Z" fill="#2F2E41"/>
<path d="M121.276 74.4518C125.088 72.1318 126.489 66.8106 124.405 62.5666C122.321 58.3225 117.542 56.7628 113.729 59.0828C109.917 61.4028 108.516 66.724 110.6 70.968C112.684 75.212 117.464 76.7718 121.276 74.4518Z" fill="#FFB8B8"/>
<path d="M125.455 61.4125C123.643 62.7051 121.494 63.393 119.294 63.3839C120.079 63.9473 120.972 64.3279 121.912 64.4993C118.988 65.149 115.965 65.1666 113.034 64.551C112.382 64.4428 111.753 64.2192 111.175 63.89C110.887 63.7233 110.636 63.4957 110.438 63.222C110.24 62.9483 110.101 62.6345 110.028 62.3012C109.833 61.1488 110.7 60.1019 111.601 59.3963C112.981 58.3325 114.572 57.5996 116.258 57.2505C117.945 56.9015 119.686 56.9451 121.355 57.3781C122.444 57.6697 123.535 58.1624 124.243 59.0685C124.951 59.9745 125.16 61.3713 124.486 62.3043L125.455 61.4125Z" fill="#2F2E41"/>
<path d="M118.182 41.0526C113.424 41.0518 108.796 42.7587 105.003 45.9129C101.211 49.0672 98.4621 53.496 97.1759 58.5241C95.8897 63.5523 96.1366 68.9042 97.8789 73.7641C99.6213 78.624 102.764 82.7253 106.827 85.4431L106.967 85.5335C107.084 85.6107 107.2 85.6852 107.317 85.757C107.513 85.8847 107.709 86.0071 107.91 86.1242C108.046 86.2014 108.182 86.2812 108.318 86.3557C109.832 87.2041 111.433 87.8525 113.086 88.2875C113.428 88.3779 113.77 88.4604 114.119 88.5296C115.458 88.8081 116.819 88.948 118.182 88.9473C118.526 88.9473 118.868 88.9394 119.21 88.9207C119.69 88.8968 120.165 88.8551 120.635 88.7957C121.205 88.7265 121.767 88.6325 122.323 88.5136C123.444 88.2767 124.546 87.9431 125.62 87.5158C125.755 87.4599 125.891 87.4041 126.024 87.3482C126.39 87.1939 126.75 87.0289 127.103 86.8533C127.491 86.6617 127.873 86.4577 128.25 86.2413C132.024 84.072 135.143 80.7472 137.229 76.6703C137.239 76.6491 137.251 76.6278 137.261 76.6065C138.374 74.4143 139.163 72.0425 139.6 69.5792C140.213 66.1115 140.121 62.5378 139.328 59.1141C138.536 55.6904 137.063 52.5014 135.017 49.7753C132.97 47.0492 130.399 44.8536 127.489 43.3456C124.579 41.8376 121.4 41.0546 118.182 41.0526H118.182ZM136.863 76.2952C136.844 76.3324 136.827 76.3697 136.807 76.4042C134.763 80.421 131.687 83.6892 127.964 85.8023C127.593 86.0151 127.215 86.2147 126.832 86.4009C126.514 86.5579 126.189 86.7069 125.862 86.8453C125.724 86.9038 125.583 86.9624 125.443 87.0156C124.515 87.3874 123.565 87.6861 122.599 87.9096C121.882 88.0771 121.158 88.2023 120.429 88.2848C119.981 88.338 119.525 88.3753 119.067 88.3939C118.773 88.4072 118.478 88.4152 118.182 88.4152C116.863 88.4169 115.546 88.2824 114.25 88.0134C113.461 87.8537 112.682 87.6441 111.915 87.3854C110.748 86.9895 109.613 86.4848 108.524 85.8768C108.398 85.8049 108.272 85.7331 108.148 85.6586C107.971 85.5548 107.792 85.4484 107.617 85.334C107.486 85.2541 107.355 85.169 107.227 85.0838C107.152 85.0359 107.076 84.9854 107.001 84.9348C103.439 82.5335 100.597 79.037 98.8284 74.8792C97.0599 70.7213 96.4425 66.085 97.0528 61.5455C97.6631 57.006 99.4742 52.7631 102.261 49.343C105.049 45.923 108.69 43.4764 112.732 42.3068C116.775 41.1372 121.041 41.2961 125.002 42.7636C128.963 44.2312 132.445 46.9429 135.014 50.5624C137.584 54.1818 139.129 58.5498 139.458 63.1242C139.787 67.6987 138.884 72.2784 136.863 76.2952H136.863Z" fill="#3F3D56"/>
<path d="M113.096 50.9608C112.982 49.5761 111.525 48.7236 110.386 49.1419C109.246 49.5602 108.498 50.8959 108.272 52.2617C108.163 52.8369 108.153 53.4315 108.242 54.0113C108.331 54.5911 108.517 55.1448 108.79 55.6406C109.366 56.6056 110.425 57.2078 111.412 56.9629C112.539 56.6832 113.32 55.4021 113.543 54.0861C113.767 52.7701 113.545 51.4133 113.323 50.0969L113.096 50.9608Z" fill="#2F2E41"/>
<path d="M129.459 53.2415C129.346 51.8568 127.889 51.0043 126.749 51.4226C125.61 51.8409 124.862 53.1766 124.635 54.5424C124.527 55.1176 124.516 55.7122 124.605 56.292C124.694 56.8718 124.881 57.4255 125.154 57.9213C125.73 58.8863 126.788 59.4885 127.776 59.2436C128.903 58.9639 129.684 57.6828 129.907 56.3668C130.13 55.0508 129.909 53.694 129.687 52.3776L129.459 53.2415Z" fill="#2F2E41"/>
<path d="M80.619 74.1228C80.469 74.1226 80.3206 74.0875 80.1834 74.0196C80.0462 73.9517 79.9232 73.8526 79.8223 73.7285L67.8657 59.1538C67.73 58.9888 67.5652 58.857 67.3816 58.7668C67.198 58.6765 66.9997 58.6298 66.7992 58.6296H3.61653C2.6577 58.6284 1.73844 58.2022 1.06045 57.4446C0.382448 56.687 0.00107653 55.6599 0 54.5885V29.1288C0.00107589 28.0574 0.382448 27.0302 1.06045 26.2726C1.73844 25.515 2.6577 25.0889 3.61653 25.0877H85.4744C86.4332 25.0889 87.3525 25.515 88.0305 26.2726C88.7085 27.0302 89.0898 28.0574 89.0909 29.1288V54.5885C89.0898 55.6599 88.7085 56.6871 88.0305 57.4446C87.3525 58.2022 86.4332 58.6284 85.4744 58.6296H83.1537C82.7701 58.6301 82.4023 58.8006 82.1311 59.1036C81.8598 59.4067 81.7073 59.8177 81.7068 60.2463V72.9094C81.7078 73.1539 81.6421 73.3929 81.5186 73.5946C81.3951 73.7964 81.2195 73.9514 81.0153 74.0391C80.889 74.0943 80.7546 74.1227 80.619 74.1228V74.1228Z" fill="white"/>
<path d="M80.619 74.1228C80.469 74.1226 80.3206 74.0875 80.1834 74.0196C80.0462 73.9517 79.9232 73.8526 79.8223 73.7285L67.8657 59.1538C67.73 58.9888 67.5652 58.857 67.3816 58.7668C67.198 58.6765 66.9997 58.6298 66.7992 58.6296H3.61653C2.6577 58.6284 1.73844 58.2022 1.06045 57.4446C0.382448 56.687 0.00107653 55.6599 0 54.5885V29.1288C0.00107589 28.0574 0.382448 27.0302 1.06045 26.2726C1.73844 25.515 2.6577 25.0889 3.61653 25.0877H85.4744C86.4332 25.0889 87.3525 25.515 88.0305 26.2726C88.7085 27.0302 89.0898 28.0574 89.0909 29.1288V54.5885C89.0898 55.6599 88.7085 56.6871 88.0305 57.4446C87.3525 58.2022 86.4332 58.6284 85.4744 58.6296H83.1537C82.7701 58.6301 82.4023 58.8006 82.1311 59.1036C81.8598 59.4067 81.7073 59.8177 81.7068 60.2463V72.9094C81.7078 73.1539 81.6421 73.3929 81.5186 73.5946C81.3951 73.7964 81.2195 73.9514 81.0153 74.0391C80.889 74.0943 80.7546 74.1227 80.619 74.1228V74.1228ZM3.61653 25.6262C2.78547 25.6272 1.9887 25.9966 1.40105 26.6532C0.813398 27.3099 0.482844 28.2001 0.481906 29.1288V54.5885C0.482846 55.5171 0.813402 56.4074 1.40105 57.064C1.98871 57.7207 2.78547 58.09 3.61653 58.0911H66.7992C67.0665 58.0914 67.3309 58.1537 67.5756 58.274C67.8203 58.3943 68.04 58.57 68.2209 58.7899L80.1775 73.3646C80.2596 73.4647 80.3668 73.5347 80.4851 73.5655C80.6034 73.5963 80.7273 73.5865 80.8405 73.5373C80.9538 73.4881 81.051 73.4018 81.1196 73.2897C81.1882 73.1777 81.2249 73.0451 81.2249 72.9094V60.2463C81.2255 59.6749 81.4289 59.1271 81.7905 58.723C82.152 58.319 82.6423 58.0917 83.1537 58.0911H85.4744C86.3054 58.09 87.1022 57.7207 87.6898 57.064C88.2775 56.4074 88.608 55.5171 88.609 54.5885V29.1288C88.6081 28.2001 88.2775 27.3099 87.6899 26.6532C87.1022 25.9966 86.3054 25.6272 85.4744 25.6262H3.61653Z" fill="#3F3D56"/>
<path d="M81.9434 52.4561H7.15161C6.92885 52.4564 6.70823 52.4124 6.50235 52.3265C6.29647 52.2407 6.10937 52.1147 5.95176 51.9559C5.79415 51.797 5.66912 51.6083 5.58381 51.4007C5.4985 51.193 5.45459 50.9704 5.45459 50.7456C5.45459 50.5208 5.4985 50.2982 5.58381 50.0906C5.66912 49.8829 5.79415 49.6942 5.95176 49.5354C6.10937 49.3765 6.29647 49.2506 6.50235 49.1647C6.70823 49.0789 6.92885 49.0348 7.15161 49.0351H81.9434C82.3926 49.0356 82.8232 49.2161 83.1407 49.5368C83.4581 49.8575 83.6364 50.2923 83.6364 50.7456C83.6364 51.1989 83.4581 51.6337 83.1407 51.9544C82.8232 52.2752 82.3926 52.4556 81.9434 52.4561V52.4561Z" fill="#E6E6E6"/>
<path d="M57.4017 44.4737H7.14588C6.92387 44.4739 6.70399 44.4299 6.49881 44.344C6.29362 44.2582 6.10716 44.1323 5.95008 43.9734C5.793 43.8145 5.66839 43.6259 5.58337 43.4182C5.49835 43.2105 5.45459 42.9879 5.45459 42.7631C5.45459 42.5383 5.49835 42.3157 5.58337 42.1081C5.66839 41.9004 5.793 41.7118 5.95008 41.5529C6.10716 41.394 6.29362 41.2681 6.49881 41.1822C6.70399 41.0964 6.92387 41.0523 7.14588 41.0526H57.4017C57.8497 41.0526 58.2794 41.2328 58.5962 41.5536C58.913 41.8744 59.091 42.3095 59.091 42.7631C59.091 43.2168 58.913 43.6519 58.5962 43.9727C58.2794 44.2935 57.8497 44.4737 57.4017 44.4737Z" fill="#E6E6E6"/>
<path d="M108.182 168.279C104.801 170.762 100.884 172.117 96.8696 172.19C92.8554 172.263 88.9027 171.052 85.4546 168.693C86.0612 167.398 86.8298 166.212 87.7359 165.172C89.134 163.56 90.8356 162.338 92.7098 161.598C94.584 160.859 96.5811 160.622 98.5475 160.906C100.514 161.19 102.397 161.988 104.053 163.237C105.709 164.487 107.093 166.155 108.099 168.114C108.126 168.167 108.155 168.223 108.182 168.279Z" fill="#4A90E2"/>
<path d="M95.9091 155.088C101.683 155.088 106.364 149.982 106.364 143.684C106.364 137.386 101.683 132.281 95.9091 132.281C90.1352 132.281 85.4546 137.386 85.4546 143.684C85.4546 149.982 90.1352 155.088 95.9091 155.088Z" fill="#2F2E41"/>
<path d="M103.826 151.932C105.924 147.66 104.514 142.303 100.676 139.968C96.8386 137.632 92.0271 139.203 89.9293 143.475C87.8315 147.747 89.2418 153.104 93.0794 155.439C96.917 157.774 101.729 156.204 103.826 151.932Z" fill="#FFB8B8"/>
<path d="M88.1816 142.377C89.9928 143.67 92.1425 144.358 94.3422 144.349C93.5575 144.912 92.6643 145.293 91.7239 145.464C94.6485 146.114 97.6711 146.131 100.603 145.516C101.254 145.408 101.883 145.184 102.461 144.855C102.749 144.688 103.001 144.461 103.198 144.187C103.396 143.913 103.536 143.599 103.609 143.266C103.803 142.114 102.936 141.067 102.035 140.361C100.655 139.297 99.0645 138.564 97.3777 138.215C95.6909 137.866 93.9503 137.91 92.2817 138.343C91.1922 138.635 90.1007 139.127 89.3931 140.033C88.6854 140.939 88.4758 142.336 89.15 143.269L88.1816 142.377Z" fill="#2F2E41"/>
<path d="M96.3568 172.193C91.1073 172.191 86.0344 170.112 82.0686 166.337C78.1028 162.562 75.51 157.344 74.7658 151.64C74.0216 145.937 75.176 140.13 78.0171 135.285C80.8583 130.44 85.1957 126.882 90.2338 125.263C95.2718 123.644 100.673 124.073 105.446 126.472C110.219 128.87 114.044 133.077 116.22 138.321C118.395 143.564 118.776 149.493 117.291 155.02C115.806 160.546 112.555 165.3 108.135 168.408C104.62 170.882 100.532 172.196 96.3568 172.193V172.193ZM96.3568 124.816C92.1356 124.815 88.0091 126.189 84.4991 128.763C80.9891 131.336 78.2534 134.995 76.6378 139.275C75.0222 143.555 74.5994 148.266 75.4228 152.81C76.2463 157.354 78.2789 161.528 81.2638 164.804C84.2486 168.08 88.0516 170.311 92.1917 171.215C96.3318 172.119 100.623 171.655 104.523 169.882C108.423 168.108 111.756 165.106 114.101 161.253C116.446 157.401 117.697 152.871 117.697 148.238C117.69 142.028 115.44 136.075 111.439 131.684C107.439 127.293 102.015 124.823 96.3568 124.816V124.816Z" fill="#3F3D56"/>
<path d="M135.909 122.018C137.666 122.018 139.091 120.486 139.091 118.596C139.091 116.707 137.666 115.175 135.909 115.175C134.152 115.175 132.727 116.707 132.727 118.596C132.727 120.486 134.152 122.018 135.909 122.018Z" fill="#4A90E2"/>
<path d="M133.182 163.07C136.446 163.07 139.091 162.56 139.091 161.93C139.091 161.3 136.446 160.789 133.182 160.789C129.919 160.789 127.273 161.3 127.273 161.93C127.273 162.56 129.919 163.07 133.182 163.07Z" fill="#F2F2F2"/>
<path d="M80.4545 77.5439C83.718 77.5439 86.3636 77.0333 86.3636 76.4035C86.3636 75.7737 83.718 75.2632 80.4545 75.2632C77.191 75.2632 74.5454 75.7737 74.5454 76.4035C74.5454 77.0333 77.191 77.5439 80.4545 77.5439Z" fill="#F2F2F2"/>
</svg>
