<svg width="150" height="195" viewBox="0 0 150 195" fill="none" xmlns="http://www.w3.org/2000/svg">
<path d="M84.724 86.8028H22.2881V129.932H84.724V86.8028Z" fill="#CCCCCC"/>
<path d="M54.3297 182.61L53.2571 191.669C53.2085 192.079 53.3025 192.491 53.5326 192.876C53.7627 193.262 54.1237 193.613 54.5913 193.906C55.059 194.198 55.6225 194.426 56.244 194.573C56.8656 194.72 57.5308 194.783 58.1951 194.758L65.7271 194.476C66.0761 194.463 66.4161 194.402 66.7231 194.299C67.03 194.196 67.2963 194.052 67.503 193.877C67.7097 193.703 67.8518 193.503 67.9192 193.291C67.9865 193.079 67.9775 192.861 67.8927 192.651L63.7118 182.32L54.3297 182.61Z" fill="#E6E6E6"/>
<path d="M117.331 187.967C126.196 189.248 132.528 191.069 136.688 193.533C138.169 194.404 140.108 194.917 142.15 194.98C144.759 195.064 146.892 194.884 148.496 194.441H148.496C148.907 194.33 149.261 194.152 149.523 193.927C149.785 193.702 149.945 193.437 149.986 193.161C150.034 192.881 149.961 192.597 149.772 192.341C149.584 192.084 149.287 191.863 148.914 191.7L127.89 182.459L118.96 184.666L116.877 185.953C116.651 186.092 116.481 186.262 116.38 186.449C116.279 186.636 116.249 186.835 116.293 187.03C116.337 187.225 116.453 187.411 116.634 187.574C116.814 187.736 117.053 187.871 117.331 187.967H117.331Z" fill="#E6E6E6"/>
<path d="M90.0501 40.06L29.9565 39.7163C30.1077 34.3091 32.1441 28.9995 36.5956 24.2481C39.5191 21.1275 39.456 17.7314 38.7514 14.8703C37.6641 10.455 40.1925 5.93749 45.8107 3.12683C50.1041 0.975156 55.523 -0.132442 61.0466 0.0126437L62.2134 0.0426755C66.0143 0.140257 69.7146 0.82616 72.9745 2.03741C76.2345 3.24865 78.9496 4.94643 80.8707 6.97485C82.8232 9.14027 83.6106 11.6331 83.1191 14.0932C82.7382 16.4079 83.6497 18.7462 85.7815 21.1067C89.4595 26.2901 90.256 32.923 90.0501 40.06Z" fill="#2F2E41"/>
<path d="M130.256 182.941L118.462 184.842L61.0303 107.547L64.6198 182.941H52.8257C40.223 147.47 17.4697 106.533 27.6994 93.609L88.7205 91.3915L130.256 182.941Z" fill="#4A90E2"/>
<path d="M60.5169 27.0851C69.2962 27.0851 76.4132 22.6884 76.4132 17.2649C76.4132 11.8413 69.2962 7.44466 60.5169 7.44466C51.7376 7.44466 44.6206 11.8413 44.6206 17.2649C44.6206 22.6884 51.7376 27.0851 60.5169 27.0851Z" fill="#FFB9B9"/>
<path d="M74.3629 35.3213L48.2109 34.371C50.7739 30.737 51.7977 27.2376 50.7749 23.9173H70.2606C70.2165 26.4666 72.2701 30.8766 74.3629 35.3213Z" fill="#FFB9B9"/>
<path d="M90.7717 94.2424L33.3403 96.7769L39.2371 33.8959L49.2365 32.1535L60.5175 33.7374L71.7985 30.2527L78.9775 31.8369L90.7717 94.2424Z" fill="#4A90E2"/>
<path d="M43.0834 139.542L3.85547 133.998C15.52 110.103 36.5341 55.4362 29.751 35.9549L50.2623 30.2528L43.0834 139.542Z" fill="#E6E6E6"/>
<path d="M24.11 70.484L9.23926 64.7819L21.9213 41.836C23.3358 39.4683 26.045 37.4803 29.5807 36.2157L33.8528 34.6878L31.2889 57.8128L24.11 70.484Z" fill="#E6E6E6"/>
<path d="M124.872 134.315C112.491 138.74 81.5423 141.207 67.9533 138.117C66.9534 116.527 64.9924 55.4562 71.2864 29.6193L93.8489 35.3213L91.7977 52.4275C81.011 67.0609 112.333 118.029 124.872 134.315Z" fill="#E6E6E6"/>
<path d="M123.077 67.6331L109.232 64.782L90.7715 51.7938L93.8484 35.3213L124.615 61.9309L123.077 67.6331Z" fill="#E6E6E6"/>
<path d="M79.6867 79.9631C79.9132 80.5773 80.5247 81.1108 81.3871 81.4469C82.2495 81.7829 83.2925 81.8939 84.2872 81.7557L96.0399 80.1115L94.3413 75.4771L82.5884 77.1211C81.5936 77.2603 80.729 77.6379 80.1849 78.1709C79.6407 78.7039 79.4615 79.3485 79.6867 79.9631V79.9631Z" fill="#FFB9B9"/>
<path d="M74.362 14.7306C65.5326 12.4877 56.8123 12.3254 48.2101 14.4138L44.6206 6.49431H77.4387L74.362 14.7306Z" fill="#2F2E41"/>
<path d="M90.2588 74.6021L96.925 82.2049C108.137 80.273 117.855 74.1825 127.179 66.9994L124.615 61.9309L108.719 64.4651L90.2588 74.6021Z" fill="#E6E6E6"/>
<path d="M85.3872 58.9215H83.3361C83.3361 40.9999 77.363 28.5106 71.5421 28.5106L71.0293 27.2434C76.2495 27.2434 79.5776 32.4414 81.4502 36.8021C83.9891 42.7137 85.3872 50.5692 85.3872 58.9215Z" fill="#3F3D56"/>
<path d="M38.2113 54.4866H36.1602C36.1602 38.0732 42.1746 27.877 51.0309 27.877L50.5181 29.1441C44.3922 29.1441 38.2113 36.9803 38.2113 54.4866Z" fill="#3F3D56"/>
<path d="M84.3622 62.4061C87.1942 62.4061 89.49 60.9878 89.49 59.2383C89.49 57.4887 87.1942 56.0705 84.3622 56.0705C81.5302 56.0705 79.2344 57.4887 79.2344 59.2383C79.2344 60.9878 81.5302 62.4061 84.3622 62.4061Z" fill="#3F3D56"/>
<path d="M30.0072 62.0893H27.9561C27.9561 57.5478 32.0966 53.853 37.1861 53.853V55.1202C33.2276 55.1202 30.0072 58.2465 30.0072 62.0893Z" fill="#3F3D56"/>
<path d="M46.4166 62.0893H44.3655C44.3655 58.2465 41.1451 55.1202 37.1865 55.1202V53.853C42.276 53.853 46.4166 57.5478 46.4166 62.0893Z" fill="#3F3D56"/>
<path d="M45.3905 63.6732C46.5233 63.6732 47.4416 63.1059 47.4416 62.406C47.4416 61.7062 46.5233 61.1389 45.3905 61.1389C44.2577 61.1389 43.3394 61.7062 43.3394 62.406C43.3394 63.1059 44.2577 63.6732 45.3905 63.6732Z" fill="#3F3D56"/>
<path d="M28.9818 63.6732C30.1146 63.6732 31.0329 63.1059 31.0329 62.406C31.0329 61.7062 30.1146 61.1389 28.9818 61.1389C27.849 61.1389 26.9307 61.7062 26.9307 62.406C26.9307 63.1059 27.849 63.6732 28.9818 63.6732Z" fill="#3F3D56"/>
<path d="M3.34229 50.7542L16.1399 52.1658L45.3906 77.8596L29.8509 75.6008L3.34229 50.7542Z" fill="#4A90E2"/>
<path d="M1.0721 50.4396C0.877087 50.4414 0.68644 50.4755 0.520106 50.5385C0.353773 50.6014 0.217873 50.6907 0.126591 50.7972C0.0353091 50.9037 -0.00800165 51.0234 0.0012163 51.1437C0.0104342 51.2641 0.0718414 51.3807 0.178989 51.4813L27.521 77.1092C27.6736 77.2524 27.9092 77.3541 28.1795 77.3933L40.9009 79.2423C41.1154 79.2735 41.3402 79.2637 41.5454 79.2141C41.7506 79.1646 41.9266 79.0777 42.05 78.9649C42.1735 78.8521 42.2385 78.7188 42.2364 78.5827C42.2344 78.4466 42.1654 78.3141 42.0386 78.2027L12.0188 51.8337C11.9374 51.7619 11.8339 51.7006 11.7141 51.6535C11.5944 51.6064 11.4608 51.5743 11.321 51.5591L1.27717 50.451C1.20949 50.4435 1.14086 50.4397 1.0721 50.4396V50.4396Z" fill="#3F3D56"/>
<path d="M18.1289 68.7632L18.8888 73.4917L30.8801 72.7564C31.8951 72.6941 32.8285 72.3854 33.475 71.898C34.1215 71.4106 34.4281 70.7845 34.3274 70.1575C34.2266 69.5304 33.7268 68.9538 32.9379 68.5544C32.1489 68.155 31.1355 67.9656 30.1205 68.0279L18.1289 68.7632Z" fill="#FFB9B9"/>
<path d="M7.70117 68.2155C7.71859 69.8278 8.7668 71.3705 10.6174 72.5075C12.468 73.6445 14.971 74.2835 17.581 74.2854H19.5528L20.9882 66.8953L9.10283 64.252L7.70117 68.2155Z" fill="#E6E6E6"/>
</svg>
