<svg width="150" height="195" viewBox="0 0 150 195" fill="none" xmlns="http://www.w3.org/2000/svg">
<path d="M137.344 195L22.5044 184.832L35.1606 15.7721L150 25.94L137.344 195Z" fill="url(#paint0_linear)"/>
<path d="M135.967 192.587L24.2217 182.69L36.5378 18.1855L148.283 28.0799L135.967 192.587Z" fill="#4A90E2"/>
<path d="M142.572 166.573L29.4217 190.211L0 23.6381L113.15 0L142.572 166.573Z" fill="url(#paint1_linear)"/>
<path d="M140.651 164.649L30.5498 187.651L1.9209 25.5628L112.022 2.56291L140.651 164.649Z" fill="#E0E0E0"/>
<path d="M128.896 12.5812H13.6768V182.201H128.896V12.5812Z" fill="url(#paint2_linear)"/>
<path d="M127.345 14.8654H15.229V179.914H127.345V14.8654Z" fill="white"/>
<path d="M53.0104 43.3435C53.1324 54.3876 61.4659 63.2335 71.6218 63.0967C81.7777 62.96 89.9165 53.9014 89.7899 42.8547C89.7502 38.7493 88.5418 34.7563 86.3284 31.4179C84.1151 28.0794 81.004 25.557 77.4175 24.193L77.4738 29.344C77.4989 31.1351 76.8655 32.8639 75.7123 34.1517C74.5592 35.4395 72.9803 36.1813 71.3216 36.2146V36.2146C69.6655 36.2247 68.073 35.5267 66.892 34.273C65.7111 33.0193 65.0378 31.3119 65.0193 29.5238L64.963 24.3728C61.409 25.8292 58.3559 28.4307 56.2177 31.8243C54.0796 35.2179 52.9599 39.2394 53.0104 43.3435Z" fill="url(#paint3_linear)"/>
<path d="M89.7964 41.2389C89.7964 30.1923 81.5638 21.2324 71.4055 21.2324C61.2473 21.2324 53.0147 30.1872 53.0147 41.2389C53.008 45.3451 54.1717 49.354 56.3477 52.7215C58.5238 56.0891 61.6068 58.6521 65.1783 60.0628V54.9117C65.177 53.1236 65.8313 51.4077 66.9981 50.1388C68.165 48.8699 69.7495 48.1513 71.4055 48.1399C73.0616 48.1513 74.6461 48.8699 75.813 50.1388C76.9798 51.4077 77.6341 53.1236 77.6328 54.9117V60.0653C81.2047 58.6545 84.288 56.0911 86.464 52.723C88.6401 49.355 89.8036 45.3455 89.7964 41.2389V41.2389Z" fill="#4A90E2"/>
<path d="M71.4174 46.177C75.3216 46.177 78.4867 42.7347 78.4867 38.4884C78.4867 34.2421 75.3216 30.7998 71.4174 30.7998C67.5132 30.7998 64.3481 34.2421 64.3481 38.4884C64.3481 42.7347 67.5132 46.177 71.4174 46.177Z" fill="white" stroke="white" stroke-miterlimit="10"/>
<path d="M71.4059 48.1398C69.7499 48.1511 68.1654 48.8698 66.9985 50.1386C65.8317 51.4075 65.1774 53.1235 65.1787 54.9116V60.0651C69.203 61.6342 73.6089 61.6342 77.6332 60.0651V54.9116C77.6344 53.1235 76.9802 51.4075 75.8133 50.1386C74.6465 48.8698 73.062 48.1511 71.4059 48.1398V48.1398Z" fill="white" stroke="white" stroke-miterlimit="10"/>
<path d="M105.288 38.063C104.72 36.8675 104.46 35.5294 104.535 34.1884C104.616 32.8438 105.177 31.5859 106.102 30.6809C107.131 29.7261 108.527 29.3893 109.876 29.2728C111.224 29.1563 112.592 29.2272 113.919 28.9411C115.018 28.6977 116.061 28.2204 116.988 27.5368C117.914 26.8533 118.705 25.9773 119.314 24.96C119.398 26.087 119.483 27.2393 119.283 28.3434C119.084 29.4476 118.559 30.5467 117.672 31.1291C118.746 30.5897 118.629 31.8559 118.397 32.6132C118.929 33.3121 120.222 33.4286 120.287 34.3327C120.353 35.2368 120.341 36.1713 120.018 37.0045C119.694 37.8376 120.041 39.309 119.211 39.3723" fill="white"/>
<path d="M105.288 38.063C104.72 36.8675 104.46 35.5294 104.535 34.1884C104.616 32.8438 105.177 31.5859 106.102 30.6809C107.131 29.7261 108.527 29.3893 109.876 29.2728C111.224 29.1563 112.592 29.2272 113.919 28.9411C115.018 28.6977 116.061 28.2204 116.988 27.5368C117.914 26.8533 118.705 25.9773 119.314 24.96C119.398 26.087 119.483 27.2393 119.283 28.3434C119.084 29.4476 118.559 30.5467 117.672 31.1291C118.746 30.5897 118.629 31.8559 118.397 32.6132C118.929 33.3121 120.222 33.4286 120.287 34.3327C120.353 35.2368 120.341 36.1713 120.018 37.0045C119.694 37.8376 120.041 39.309 119.211 39.3723" stroke="white" stroke-miterlimit="10"/>
<path d="M118.066 30.962C118.066 30.962 122.991 31.4305 119.487 39.3926Z" fill="white"/>
<path d="M40.9616 145.364H25.7324V161.926H40.9616V145.364Z" fill="url(#paint4_linear)"/>
<path d="M39.6457 146.792H27.0435V160.498H39.6457V146.792Z" fill="#4A90E2"/>
<path d="M89.7964 76.83H53.0381V79.6866H89.7964V76.83Z" fill="#4A90E2"/>
<path d="M115.003 80.829H53.0381V83.6857H115.003V80.829Z" fill="#E0E0E0"/>
<path d="M115.003 84.8251H53.0381V87.6817H115.003V84.8251Z" fill="#E0E0E0"/>
<path d="M89.7964 112.525H53.0381V115.382H89.7964V112.525Z" fill="#4A90E2"/>
<path d="M115.003 116.521H53.0381V119.378H115.003V116.521Z" fill="#E0E0E0"/>
<path d="M115.003 120.52H53.0381V123.377H115.003V120.52Z" fill="#E0E0E0"/>
<path d="M89.7964 148.218H53.0381V151.075H89.7964V148.218Z" fill="#4A90E2"/>
<path d="M115.003 152.217H53.0381V155.073H115.003V152.217Z" fill="#E0E0E0"/>
<path d="M115.003 156.216H53.0381V159.072H115.003V156.216Z" fill="#E0E0E0"/>
<defs>
<linearGradient id="paint0_linear" x1="79.8935" y1="189.933" x2="94.73" y2="20.9928" gradientUnits="userSpaceOnUse">
<stop stop-color="#808080" stop-opacity="0.25"/>
<stop offset="0.54" stop-color="#808080" stop-opacity="0.12"/>
<stop offset="1" stop-color="#808080" stop-opacity="0.1"/>
</linearGradient>
<linearGradient id="paint1_linear" x1="122472" y1="129005" x2="96664.9" y2="4535.2" gradientUnits="userSpaceOnUse">
<stop stop-color="#808080" stop-opacity="0.25"/>
<stop offset="0.54" stop-color="#808080" stop-opacity="0.12"/>
<stop offset="1" stop-color="#808080" stop-opacity="0.1"/>
</linearGradient>
<linearGradient id="paint2_linear" x1="59689.2" y1="122047" x2="59689.2" y2="8439.28" gradientUnits="userSpaceOnUse">
<stop stop-color="#808080" stop-opacity="0.25"/>
<stop offset="0.54" stop-color="#808080" stop-opacity="0.12"/>
<stop offset="1" stop-color="#808080" stop-opacity="0.1"/>
</linearGradient>
<linearGradient id="paint3_linear" x1="72.5722" y1="62.7738" x2="70.3878" y2="23.7518" gradientUnits="userSpaceOnUse">
<stop stop-opacity="0.12"/>
<stop offset="0.55" stop-opacity="0.09"/>
<stop offset="1" stop-opacity="0.02"/>
</linearGradient>
<linearGradient id="paint4_linear" x1="5449.91" y1="10735.3" x2="5449.91" y2="9652.14" gradientUnits="userSpaceOnUse">
<stop stop-color="#808080" stop-opacity="0.25"/>
<stop offset="0.54" stop-color="#808080" stop-opacity="0.12"/>
<stop offset="1" stop-color="#808080" stop-opacity="0.1"/>
</linearGradient>
</defs>
</svg>
