<svg width="245" height="195" viewBox="0 0 245 195" fill="none" xmlns="http://www.w3.org/2000/svg">
<g clip-path="url(#clip0)">
<path d="M153.845 108.771H71.9268V195H153.845V108.771Z" fill="#4A90E2"/>
<path d="M158.414 98.6849H77.8013C77.5417 98.6855 77.2927 98.8452 77.1091 99.1289C76.9255 99.4126 76.8222 99.7972 76.8218 100.198V184.41C76.8218 184.608 76.8471 184.805 76.8963 184.989C76.9456 185.172 77.0177 185.339 77.1087 185.48C77.1996 185.62 77.3076 185.732 77.4265 185.808C77.5453 185.884 77.6727 185.923 77.8013 185.923H158.414C158.542 185.923 158.67 185.884 158.788 185.808C158.907 185.732 159.015 185.62 159.106 185.48C159.197 185.339 159.269 185.172 159.319 184.989C159.368 184.805 159.393 184.608 159.393 184.41V100.198C159.393 99.7972 159.289 99.4126 159.106 99.1289C158.922 98.8452 158.673 98.6855 158.414 98.6849V98.6849ZM158.74 184.41C158.74 184.476 158.732 184.542 158.716 184.603C158.699 184.664 158.675 184.72 158.645 184.767C158.614 184.814 158.578 184.851 158.539 184.876C158.499 184.901 158.457 184.914 158.414 184.914H77.8013C77.7584 184.914 77.7159 184.901 77.6762 184.876C77.6365 184.851 77.6005 184.814 77.5701 184.767C77.5398 184.72 77.5157 184.664 77.4994 184.603C77.483 184.542 77.4747 184.476 77.4748 184.41V100.198C77.4749 100.065 77.5094 99.9364 77.5706 99.8419C77.6318 99.7473 77.7148 99.6941 77.8013 99.6939H158.414C158.5 99.6941 158.583 99.7473 158.644 99.8419C158.706 99.9364 158.74 100.065 158.74 100.198V184.41Z" fill="#3F3D56"/>
<path d="M117.468 158.188H81.5416C81.2783 158.188 81.0649 158.518 81.0649 158.925V164.007C81.0649 164.414 81.2783 164.744 81.5416 164.744H117.468C117.731 164.744 117.945 164.414 117.945 164.007V158.925C117.945 158.518 117.731 158.188 117.468 158.188Z" fill="#3F3D56"/>
<path d="M151.559 152.642H139.812C139.683 152.642 139.556 152.681 139.437 152.757C139.318 152.833 139.21 152.945 139.119 153.085C139.028 153.226 138.956 153.393 138.907 153.576C138.858 153.76 138.833 153.957 138.833 154.156V168.274C138.833 168.472 138.858 168.669 138.907 168.853C138.956 169.036 139.028 169.203 139.119 169.344C139.21 169.484 139.318 169.596 139.437 169.672C139.556 169.748 139.683 169.787 139.812 169.787H151.559C151.688 169.787 151.815 169.748 151.934 169.672C152.053 169.596 152.161 169.484 152.252 169.344C152.343 169.203 152.415 169.036 152.464 168.853C152.513 168.669 152.539 168.472 152.539 168.274V154.156C152.539 153.957 152.513 153.76 152.464 153.576C152.415 153.393 152.343 153.226 152.252 153.085C152.161 152.945 152.053 152.833 151.934 152.757C151.815 152.681 151.688 152.642 151.559 152.642V152.642ZM151.886 168.274C151.886 168.407 151.851 168.536 151.79 168.63C151.729 168.725 151.646 168.778 151.559 168.778H139.812C139.726 168.778 139.643 168.725 139.581 168.63C139.52 168.536 139.486 168.407 139.486 168.274V154.156C139.485 154.089 139.494 154.024 139.51 153.962C139.526 153.901 139.551 153.845 139.581 153.798C139.611 153.751 139.647 153.714 139.687 153.689C139.727 153.664 139.769 153.651 139.812 153.651H151.559C151.602 153.651 151.645 153.664 151.684 153.689C151.724 153.714 151.76 153.751 151.79 153.798C151.821 153.845 151.845 153.901 151.861 153.962C151.878 154.024 151.886 154.089 151.886 154.156V168.274Z" fill="#3F3D56"/>
<path d="M149.214 155.9H142.158C141.895 155.9 141.682 156.23 141.682 156.636V157.723C141.682 158.13 141.895 158.46 142.158 158.46H149.214C149.477 158.46 149.69 158.13 149.69 157.723V156.636C149.69 156.23 149.477 155.9 149.214 155.9Z" fill="#3F3D56"/>
<path d="M149.214 159.934H142.158C141.895 159.934 141.682 160.264 141.682 160.67V161.758C141.682 162.164 141.895 162.494 142.158 162.494H149.214C149.477 162.494 149.69 162.164 149.69 161.758V160.67C149.69 160.264 149.477 159.934 149.214 159.934Z" fill="#3F3D56"/>
<path d="M150.214 163.968H143.158C142.895 163.968 142.682 164.298 142.682 164.704V165.792C142.682 166.198 142.895 166.528 143.158 166.528H150.214C150.477 166.528 150.69 166.198 150.69 165.792V164.704C150.69 164.298 150.477 163.968 150.214 163.968Z" fill="#3F3D56"/>
<path d="M98.5384 104.737H82.5206C82.2574 104.737 82.0439 105.067 82.0439 105.473V115.094C82.0439 115.501 82.2574 115.831 82.5206 115.831H98.5384C98.8017 115.831 99.0151 115.501 99.0151 115.094V105.473C99.0151 105.067 98.8017 104.737 98.5384 104.737Z" fill="#3F3D56"/>
<path d="M91.8351 110.284C91.8351 112.233 91.2506 113.814 90.5296 113.814C89.8086 113.814 89.2241 112.233 89.2241 110.284C89.2241 108.334 90.5296 106.754 90.5296 106.754C90.5296 106.754 91.8351 108.334 91.8351 110.284Z" fill="#4A90E2"/>
<path d="M213.97 59.5938H213.494V141.936H159.393V142.672H213.97V59.5938Z" fill="#3F3D56"/>
<path d="M71.9264 142.672H17.3491V59.5938H17.8258V141.936H71.9264V142.672Z" fill="#3F3D56"/>
<path d="M243.847 13.9228H243.542V13.0968H243.771C243.812 13.0968 243.85 13.072 243.879 13.0277C243.908 12.9835 243.924 12.9234 243.924 12.8609V8.61324C243.924 8.55065 243.908 8.49063 243.879 8.44638C243.85 8.40212 243.812 8.37726 243.771 8.37726H243.542V5.96496C243.542 5.29009 243.456 4.62183 243.289 3.99833C243.122 3.37483 242.877 2.8083 242.568 2.3311C242.259 1.85389 241.892 1.47536 241.489 1.2171C241.085 0.958841 240.653 0.825922 240.216 0.825929H239.876V0.235978C239.876 0.173393 239.86 0.113371 239.832 0.0691168C239.803 0.0248624 239.764 9.76588e-07 239.724 0H236.975C236.934 9.76588e-07 236.895 0.0248624 236.867 0.0691168C236.838 0.113371 236.822 0.173393 236.822 0.235978V0.825929H187.15C186.714 0.825922 186.281 0.958841 185.877 1.2171C185.474 1.47536 185.107 1.85389 184.798 2.3311C184.49 2.8083 184.245 3.37483 184.077 3.99833C183.91 4.62183 183.824 5.29009 183.824 5.96496V115.328C183.824 116.003 183.91 116.671 184.077 117.295C184.245 117.918 184.49 118.485 184.798 118.962C185.107 119.439 185.474 119.818 185.877 120.076C186.281 120.334 186.714 120.467 187.15 120.467H240.216C240.653 120.467 241.085 120.334 241.489 120.076C241.892 119.818 242.259 119.439 242.568 118.962C242.877 118.485 243.122 117.918 243.289 117.295C243.456 116.671 243.542 116.003 243.542 115.328V18.6423H243.847C243.888 18.6423 243.927 18.6175 243.955 18.5732C243.984 18.529 244 18.4689 244 18.4064V14.1587C244 14.1278 243.996 14.0971 243.989 14.0684C243.981 14.0398 243.97 14.0138 243.955 13.9919C243.941 13.97 243.924 13.9526 243.906 13.9407C243.887 13.9289 243.867 13.9228 243.847 13.9228V13.9228Z" fill="#3F3D56"/>
<path d="M240.797 4.18738H187.027C186.776 4.18738 186.573 4.50141 186.573 4.88879V115.578C186.573 115.966 186.776 116.28 187.027 116.28H240.797C241.048 116.28 241.251 115.966 241.251 115.578V4.88879C241.251 4.50141 241.048 4.18738 240.797 4.18738Z" fill="white"/>
<path d="M216.536 59.1229H208.11C207.847 59.1229 207.633 59.4526 207.633 59.8593V62.6811C207.633 63.0878 207.847 63.4176 208.11 63.4176H216.536C216.8 63.4176 217.013 63.0878 217.013 62.6811V59.8593C217.013 59.4526 216.8 59.1229 216.536 59.1229Z" fill="#3F3D56"/>
<path d="M228.876 25.6857H197.77C197.507 25.6857 197.293 26.0154 197.293 26.4221V26.7898C197.293 27.1965 197.507 27.5262 197.77 27.5262H228.876C229.139 27.5262 229.353 27.1965 229.353 26.7898V26.4221C229.353 26.0154 229.139 25.6857 228.876 25.6857Z" fill="#3F3D56"/>
<path d="M228.876 31.5142H197.77C197.507 31.5142 197.293 31.8439 197.293 32.2506V32.6183C197.293 33.025 197.507 33.3547 197.77 33.3547H228.876C229.139 33.3547 229.353 33.025 229.353 32.6183V32.2506C229.353 31.8439 229.139 31.5142 228.876 31.5142Z" fill="#3F3D56"/>
<path d="M228.876 37.3427H197.77C197.507 37.3427 197.293 37.6724 197.293 38.0791V38.4468C197.293 38.8535 197.507 39.1832 197.77 39.1832H228.876C229.139 39.1832 229.353 38.8535 229.353 38.4468V38.0791C229.353 37.6724 229.139 37.3427 228.876 37.3427Z" fill="#3F3D56"/>
<path d="M228.876 43.1712H197.77C197.507 43.1712 197.293 43.5009 197.293 43.9077V44.2753C197.293 44.6821 197.507 45.0118 197.77 45.0118H228.876C229.139 45.0118 229.353 44.6821 229.353 44.2753V43.9077C229.353 43.5009 229.139 43.1712 228.876 43.1712Z" fill="#3F3D56"/>
<path d="M227.876 48.9996H196.77C196.507 48.9996 196.293 49.3294 196.293 49.7361V50.1037C196.293 50.5105 196.507 50.8402 196.77 50.8402H227.876C228.139 50.8402 228.353 50.5105 228.353 50.1037V49.7361C228.353 49.3294 228.139 48.9996 227.876 48.9996Z" fill="#3F3D56"/>
<path d="M211.188 111.854C216.688 111.854 221.146 104.966 221.146 96.4691C221.146 87.9724 216.688 81.0845 211.188 81.0845C205.689 81.0845 201.231 87.9724 201.231 96.4691C201.231 104.966 205.689 111.854 211.188 111.854Z" fill="#4A90E2"/>
<path d="M214.123 108.336C211.654 108.336 209.24 107.204 207.187 105.085C205.134 102.966 203.534 99.953 202.589 96.4285C201.644 92.9039 201.397 89.0256 201.879 85.2839C202.36 81.5423 203.549 78.1053 205.295 75.4077C207.041 72.7102 209.266 70.8731 211.687 70.1288C214.109 69.3846 216.619 69.7665 218.9 71.2265C221.181 72.6864 223.131 75.1587 224.503 78.3307C225.875 81.5027 226.607 85.232 226.607 89.047C226.603 94.1609 225.287 99.0637 222.946 102.68C220.606 106.296 217.433 108.33 214.123 108.336V108.336ZM214.123 70.4596C211.743 70.4596 209.418 71.5497 207.439 73.5921C205.461 75.6345 203.919 78.5375 203.008 81.9339C202.098 85.3303 201.86 89.0676 202.324 92.6732C202.788 96.2788 203.934 99.5907 205.616 102.19C207.299 104.79 209.442 106.56 211.776 107.277C214.109 107.994 216.528 107.626 218.727 106.219C220.925 104.813 222.804 102.43 224.125 99.3736C225.447 96.3169 226.153 92.7232 226.153 89.047C226.149 84.119 224.881 79.3944 222.625 75.9098C220.37 72.4252 217.312 70.4651 214.123 70.4596V70.4596Z" fill="#3F3D56"/>
<path d="M36.0582 32.372H35.6498V15.0877C35.6499 13.774 35.4824 12.4732 35.157 11.2595C34.8316 10.0458 34.3547 8.94297 33.7535 8.01404C33.1523 7.08512 32.4385 6.34825 31.653 5.84552C30.8674 5.34279 30.0255 5.08404 29.1752 5.08405H5.4746C4.62435 5.08404 3.78242 5.34279 2.99688 5.84552C2.21134 6.34825 1.49759 7.08512 0.896367 8.01404C0.295144 8.94297 -0.181772 10.0458 -0.507151 11.2595C-0.83253 12.4732 -1 13.774 -1 15.0877V109.911C-1 111.224 -0.83253 112.525 -0.507151 113.739C-0.181771 114.953 0.295145 116.055 0.896369 116.984C1.49759 117.913 2.21135 118.65 2.99689 119.153C3.78242 119.655 4.62435 119.914 5.47461 119.914H29.1753C30.0255 119.914 30.8674 119.655 31.653 119.153C32.4385 118.65 33.1523 117.913 33.7535 116.984C34.3547 116.055 34.8316 114.953 35.157 113.739C35.4824 112.525 35.6499 111.224 35.6499 109.911V44.6752H36.0582V32.372Z" fill="#3F3D56"/>
<path d="M34.2711 15.6757V110.36C34.2713 112.342 33.7621 114.242 32.8554 115.643C31.9488 117.045 30.719 117.832 29.4366 117.832H5.62155C4.33915 117.832 3.10937 117.045 2.20274 115.643C1.2961 114.242 0.786888 112.342 0.787109 110.36V15.6757C0.787247 13.6947 1.29663 11.7949 2.20324 10.3942C3.10984 8.99341 4.33942 8.20638 5.62155 8.20618H8.51087C8.36868 8.74507 8.31444 9.32972 8.35294 9.90862C8.39144 10.4875 8.52148 11.0429 8.73162 11.5259C8.94176 12.0088 9.22555 12.4046 9.55798 12.6781C9.89042 12.9517 10.2613 13.0948 10.638 13.0948H24.2159C24.5926 13.0948 24.9634 12.9517 25.2959 12.6782C25.6283 12.4046 25.9121 12.0089 26.1223 11.5259C26.3324 11.0429 26.4624 10.4875 26.5009 9.90863C26.5394 9.32972 26.4852 8.74507 26.343 8.20618H29.4366C30.7187 8.20639 31.9483 8.99342 32.8549 10.3942C33.7615 11.7949 34.2709 13.6947 34.2711 15.6757Z" fill="white"/>
<path d="M20.2424 63.9891H14.816C14.5528 63.9891 14.3394 64.3188 14.3394 64.7255V66.1737C14.3394 66.5804 14.5528 66.9101 14.816 66.9101H20.2424C20.5056 66.9101 20.719 66.5804 20.719 66.1737V64.7255C20.719 64.3188 20.5056 63.9891 20.2424 63.9891Z" fill="#3F3D56"/>
<path d="M29.0265 41.2466H8.03159C7.80784 41.2466 7.62646 41.5269 7.62646 41.8726C7.62646 42.2183 7.80784 42.4985 8.03159 42.4985H29.0265C29.2503 42.4985 29.4316 42.2183 29.4316 41.8726C29.4316 41.5269 29.2503 41.2466 29.0265 41.2466Z" fill="#3F3D56"/>
<path d="M29.0265 45.2109H8.03159C7.80784 45.2109 7.62646 45.4912 7.62646 45.8369C7.62646 46.1826 7.80784 46.4628 8.03159 46.4628H29.0265C29.2503 46.4628 29.4316 46.1826 29.4316 45.8369C29.4316 45.4912 29.2503 45.2109 29.0265 45.2109Z" fill="#3F3D56"/>
<path d="M28.0265 49.1752H7.03159C6.80784 49.1752 6.62646 49.4554 6.62646 49.8011C6.62646 50.1468 6.80784 50.4271 7.03159 50.4271H28.0265C28.2503 50.4271 28.4316 50.1468 28.4316 49.8011C28.4316 49.4554 28.2503 49.1752 28.0265 49.1752Z" fill="#3F3D56"/>
<path d="M28.0265 53.1395H7.03159C6.80784 53.1395 6.62646 53.4197 6.62646 53.7654C6.62646 54.1111 6.80784 54.3913 7.03159 54.3913H28.0265C28.2503 54.3913 28.4316 54.1111 28.4316 53.7654C28.4316 53.4197 28.2503 53.1395 28.0265 53.1395Z" fill="#3F3D56"/>
<path d="M28.0265 57.1037H7.03159C6.80784 57.1037 6.62646 57.3839 6.62646 57.7296C6.62646 58.0753 6.80784 58.3556 7.03159 58.3556H28.0265C28.2503 58.3556 28.4316 58.0753 28.4316 57.7296C28.4316 57.3839 28.2503 57.1037 28.0265 57.1037Z" fill="#3F3D56"/>
<path d="M15.6531 105.008C19.4456 105.008 22.52 100.258 22.52 94.3984C22.52 88.5388 19.4456 83.7886 15.6531 83.7886C11.8606 83.7886 8.78613 88.5388 8.78613 94.3984C8.78613 100.258 11.8606 105.008 15.6531 105.008Z" fill="#4A90E2"/>
<path d="M17.6774 102.582C15.9746 102.582 14.31 101.802 12.8942 100.34C11.4784 98.8785 10.3749 96.801 9.72324 94.3703C9.0716 91.9396 8.9011 89.265 9.2333 86.6846C9.5655 84.1042 10.3855 81.7339 11.5895 79.8736C12.7936 78.0132 14.3277 76.7463 15.9978 76.233C17.6679 75.7198 19.3989 75.9832 20.9721 76.99C22.5453 77.9968 23.8899 79.7018 24.836 81.8894C25.782 84.0769 26.2869 86.6488 26.2869 89.2797C26.2844 92.8065 25.3765 96.1877 23.7624 98.6815C22.1484 101.175 19.96 102.578 17.6774 102.582V102.582ZM17.6774 76.4611C16.0365 76.4611 14.4325 77.2129 13.0682 78.6215C11.7038 80.03 10.6404 82.032 10.0125 84.3743C9.38455 86.7166 9.22025 89.2939 9.54037 91.7805C9.86049 94.2671 10.6507 96.5511 11.8109 98.3438C12.9712 100.137 14.4495 101.357 16.0589 101.852C17.6682 102.347 19.3364 102.093 20.8523 101.123C22.3683 100.152 23.664 98.5093 24.5757 96.4013C25.4873 94.2933 25.9739 91.815 25.9739 89.2797C25.9714 85.8812 25.0965 82.623 23.5412 80.2198C21.9858 77.8167 19.877 76.465 17.6774 76.4611Z" fill="#3F3D56"/>
<path d="M40.828 138.157H34.1548V148.468H40.828V138.157Z" fill="#D0CDE1"/>
<path d="M44.8795 142.576H36.7764V130.056H44.8795V142.576ZM37.1287 142.032H44.5272V130.601H37.1287V142.032Z" fill="#3F3D56"/>
<path d="M190.26 138.157H183.587V148.468H190.26V138.157Z" fill="#D0CDE1"/>
<path d="M194.312 142.576H186.208V130.056H194.312V142.576ZM186.561 142.032H193.959V130.601H186.561V142.032Z" fill="#3F3D56"/>
</g>
<defs>
<clipPath id="clip0">
<rect width="245" height="195" fill="white"/>
</clipPath>
</defs>
</svg>
