<svg width="67" height="67" viewBox="0 0 67 67" fill="none" xmlns="http://www.w3.org/2000/svg">
<circle cx="33.5" cy="33.5" r="33.5" fill="#4A90E2"/>
<path d="M41.0871 33.0465C41.0871 33.5276 41.3275 33.989 41.7555 34.3292C42.1835 34.6693 42.7639 34.8605 43.3692 34.8605C43.9744 34.8605 44.5548 34.6693 44.9828 34.3292C45.4108 33.989 45.6512 33.5276 45.6512 33.0465C45.6512 32.5654 45.4108 32.104 44.9828 31.7638C44.5548 31.4237 43.9744 31.2325 43.3692 31.2325C42.7639 31.2325 42.1835 31.4237 41.7555 31.7638C41.3275 32.104 41.0871 32.5654 41.0871 33.0465ZM22.0698 33.0465C22.0698 33.5276 22.3103 33.989 22.7382 34.3292C23.1662 34.6693 23.7467 34.8605 24.3519 34.8605C24.9571 34.8605 25.5376 34.6693 25.9656 34.3292C26.3935 33.989 26.634 33.5276 26.634 33.0465C26.634 32.5654 26.3935 32.104 25.9656 31.7638C25.5376 31.4237 24.9571 31.2325 24.3519 31.2325C23.7467 31.2325 23.1662 31.4237 22.7382 31.7638C22.3103 32.104 22.0698 32.5654 22.0698 33.0465Z" fill="white"/>
<path d="M53.1003 25.9438C52.048 23.6064 50.5393 21.5084 48.6163 19.7064C46.7067 17.9148 44.4397 16.4907 41.9438 15.5147C39.3828 14.5093 36.6636 14 33.8605 14H33.7673C30.9456 14.0131 28.2124 14.5354 25.6421 15.5626C23.1676 16.5486 20.9219 17.9752 19.0302 19.7629C17.1257 21.5606 15.6311 23.6499 14.5974 25.9786C13.5264 28.39 12.9863 30.9537 13.0003 33.5914C13.0161 36.6142 13.7811 39.5925 15.2353 42.2924V48.9085C15.2353 49.4395 15.4609 49.9488 15.8626 50.3243C16.2643 50.6998 16.8091 50.9107 17.3772 50.9107H24.4594C27.3477 52.2701 30.5337 52.9852 33.7673 53H33.8651C36.6542 53 39.3596 52.4951 41.9065 51.507C44.3899 50.5427 46.6484 49.1352 48.5557 47.3633C50.4788 45.583 51.9921 43.5025 53.0491 41.1825C54.1479 38.7798 54.7067 36.2248 54.7207 33.5871C54.7346 30.9363 54.1852 28.3638 53.1003 25.9438ZM46.0646 45.0085C42.8006 48.0292 38.4702 49.692 33.8605 49.692H33.7813C30.9736 49.6789 28.1844 49.026 25.7213 47.7985L25.3301 47.6027H18.7741V41.4741L18.5645 41.1085C17.2515 38.8059 16.553 36.1987 16.539 33.574C16.5204 29.2344 18.2945 25.1603 21.5492 22.0916C24.7993 19.023 29.1436 17.3254 33.786 17.308H33.8651C36.1933 17.308 38.4516 17.7302 40.5795 18.566C42.6562 19.3799 44.5187 20.5508 46.1205 22.0481C47.7176 23.5411 48.9748 25.2865 49.8455 27.2278C50.7489 29.2387 51.2005 31.3715 51.1912 33.574C51.1633 37.9093 49.3426 41.9703 46.0646 45.0085Z" fill="white"/>
<path d="M31.1396 33.0465C31.1396 33.5276 31.3785 33.989 31.8038 34.3292C32.229 34.6693 32.8057 34.8605 33.4071 34.8605C34.0085 34.8605 34.5852 34.6693 35.0104 34.3292C35.4356 33.989 35.6745 33.5276 35.6745 33.0465C35.6745 32.5654 35.4356 32.104 35.0104 31.7638C34.5852 31.4237 34.0085 31.2325 33.4071 31.2325C32.8057 31.2325 32.229 31.4237 31.8038 31.7638C31.3785 32.104 31.1396 32.5654 31.1396 33.0465Z" fill="white"/>
</svg>
