<svg width="98" height="171" viewBox="0 0 98 171" fill="none" xmlns="http://www.w3.org/2000/svg">
<path d="M1.88909 75.6727C1.33329 74.4895 1.07872 73.1651 1.15196 71.8378C1.23077 70.5071 1.78091 69.262 2.68592 68.3663C3.69401 67.4213 5.06034 67.088 6.38074 66.9727C7.70114 66.8574 9.03991 66.9275 10.3396 66.6443C11.4157 66.4035 12.4369 65.931 13.3438 65.2545C14.2506 64.5779 15.0248 63.7109 15.6212 62.7041C15.7039 63.8195 15.7866 64.9599 15.5914 66.0528C15.3962 67.1456 14.8818 68.2334 14.0138 68.8099C15.0655 68.276 14.9507 69.5293 14.7234 70.2787C15.2446 70.9705 16.5099 71.0858 16.5742 71.9806C16.6385 72.8755 16.627 73.8003 16.3101 74.625C15.9932 75.4496 16.3331 76.9059 15.5202 76.9686" fill="white"/>
<path d="M1.88909 75.6727C1.33329 74.4895 1.07872 73.1651 1.15196 71.8378C1.23077 70.5071 1.78091 69.262 2.68592 68.3663C3.69401 67.4213 5.06034 67.088 6.38074 66.9727C7.70114 66.8574 9.03991 66.9275 10.3396 66.6443C11.4157 66.4035 12.4369 65.931 13.3438 65.2545C14.2506 64.5779 15.0248 63.7109 15.6212 62.7041C15.7039 63.8195 15.7866 64.9599 15.5914 66.0528C15.3962 67.1456 14.8818 68.2334 14.0138 68.8099C15.0655 68.276 14.9507 69.5293 14.7234 70.2787C15.2446 70.9705 16.5099 71.0858 16.5742 71.9806C16.6385 72.8755 16.627 73.8003 16.3101 74.625C15.9932 75.4496 16.3331 76.9059 15.5202 76.9686" stroke="white" stroke-miterlimit="10"/>
<path d="M14.3994 68.6445C14.3994 68.6445 19.2217 69.1082 15.791 76.9887L14.3994 68.6445Z" fill="white"/>
<path d="M97.8066 40.636H96.7488V14.897C96.7488 10.9461 94.9817 7.15698 91.8362 4.36325C88.6908 1.56951 84.4246 4.36213e-06 79.9762 0H18.5792C14.1309 -7.47787e-06 9.86471 1.56948 6.71924 4.36321C3.57377 7.15693 1.80665 10.946 1.80664 14.897V156.103C1.80664 160.054 3.57374 163.843 6.7192 166.637C9.86466 169.43 14.1308 171 18.5792 171H79.9762C84.4245 171 88.6907 169.431 91.8362 166.637C94.9816 163.843 96.7487 160.054 96.7488 156.103V58.9574H97.8066L97.8066 40.636Z" fill="#3F3D56"/>
<path d="M93.8066 15.1085V155.892C93.8066 158.838 92.483 161.663 90.1269 163.746C87.7709 165.83 84.5755 167 81.2435 167H19.3698C16.0378 167 12.8424 165.83 10.4864 163.746C8.13032 161.663 6.8067 158.838 6.80664 155.892V15.1085C6.8067 12.1623 8.13033 9.33688 10.4864 7.25365C12.8424 5.17043 16.0378 4.00006 19.3698 4H26.8758C26.507 4.8014 26.3665 5.67066 26.4668 6.53132C26.5671 7.39198 26.905 8.21766 27.4509 8.93574C27.9967 9.65382 28.7338 10.2423 29.5972 10.6494C30.4607 11.0565 31.424 11.2697 32.4025 11.2704H67.6801C68.6586 11.2697 69.622 11.0565 70.4854 10.6494C71.3488 10.2423 72.0859 9.6538 72.6318 8.93573C73.1776 8.21765 73.5155 7.39197 73.6158 6.53131C73.7161 5.67066 73.5756 4.8014 73.2068 4H81.2435C84.5754 4.00005 87.7709 5.17043 90.1269 7.25365C92.4829 9.33688 93.8066 12.1623 93.8066 15.1085Z" fill="white"/>
<path d="M74.2944 64C74.1934 63.9999 74.0935 63.9863 74.0011 63.96C73.9087 63.9337 73.8258 63.8953 73.7579 63.8472L65.7055 58.1999C65.6141 58.1359 65.5031 58.0849 65.3794 58.0499C65.2558 58.0149 65.1223 57.9968 64.9872 57.9967H22.4356C21.7899 57.9962 21.1708 57.8311 20.7142 57.5376C20.2576 57.244 20.0007 56.846 20 56.4309V46.5658C20.0007 46.1507 20.2576 45.7527 20.7142 45.4591C21.1708 45.1656 21.7899 45.0005 22.4356 45H77.5644C78.2101 45.0005 78.8292 45.1656 79.2858 45.4591C79.7424 45.7527 79.9993 46.1507 80 46.5658V56.4309C79.9993 56.846 79.7424 57.244 79.2858 57.5376C78.8292 57.8311 78.2101 57.9963 77.5644 57.9967H76.0015C75.7431 57.9969 75.4954 58.063 75.3128 58.1804C75.1301 58.2979 75.0273 58.4571 75.0271 58.6232V63.5298C75.0277 63.6246 74.9835 63.7172 74.9003 63.7953C74.8171 63.8735 74.6989 63.9336 74.5613 63.9676C74.4763 63.9889 74.3858 63.9999 74.2944 64V64Z" fill="white"/>
<path d="M74.2944 64C74.1934 63.9999 74.0935 63.9863 74.0011 63.96C73.9087 63.9337 73.8258 63.8953 73.7579 63.8472L65.7055 58.1999C65.6141 58.1359 65.5031 58.0849 65.3794 58.0499C65.2558 58.0149 65.1223 57.9968 64.9872 57.9967H22.4356C21.7899 57.9962 21.1708 57.8311 20.7142 57.5376C20.2576 57.244 20.0007 56.846 20 56.4309V46.5658C20.0007 46.1507 20.2576 45.7527 20.7142 45.4591C21.1708 45.1656 21.7899 45.0005 22.4356 45H77.5644C78.2101 45.0005 78.8292 45.1656 79.2858 45.4591C79.7424 45.7527 79.9993 46.1507 80 46.5658V56.4309C79.9993 56.846 79.7424 57.244 79.2858 57.5376C78.8292 57.8311 78.2101 57.9963 77.5644 57.9967H76.0015C75.7431 57.9969 75.4954 58.063 75.3128 58.1804C75.1301 58.2979 75.0273 58.4571 75.0271 58.6232V63.5298C75.0277 63.6246 74.9835 63.7172 74.9003 63.7953C74.8171 63.8735 74.6989 63.9336 74.5613 63.9676C74.4763 63.9889 74.3858 63.9999 74.2944 64ZM22.4356 45.2086C21.8759 45.2091 21.3393 45.3522 20.9436 45.6066C20.5478 45.861 20.3252 46.206 20.3245 46.5658V56.4309C20.3252 56.7907 20.5478 57.1357 20.9436 57.3901C21.3393 57.6445 21.8759 57.7877 22.4356 57.7881H64.9872C65.1672 57.7882 65.3453 57.8123 65.5101 57.8589C65.6749 57.9056 65.8229 57.9736 65.9447 58.0589L73.9971 63.7062C74.0524 63.745 74.1246 63.7721 74.2043 63.7841C74.2839 63.796 74.3674 63.7922 74.4436 63.7731C74.5199 63.7541 74.5854 63.7206 74.6316 63.6772C74.6778 63.6338 74.7025 63.5824 74.7025 63.5298V58.6232C74.7029 58.4018 74.8399 58.1895 75.0834 58.0329C75.3269 57.8764 75.6571 57.7883 76.0015 57.7881H77.5644C78.1241 57.7877 78.6607 57.6445 79.0564 57.3901C79.4522 57.1357 79.6748 56.7907 79.6754 56.4309V46.5658C79.6748 46.206 79.4522 45.861 79.0564 45.6066C78.6607 45.3522 78.1241 45.2091 77.5644 45.2086H22.4356Z" fill="#3F3D56"/>
<path d="M74.874 55H25.1287C24.9806 55.0001 24.8338 54.9872 24.6969 54.9621C24.5599 54.937 24.4355 54.9002 24.3307 54.8538C24.2258 54.8073 24.1427 54.7522 24.0859 54.6915C24.0292 54.6308 24 54.5657 24 54.5C24 54.4343 24.0292 54.3692 24.0859 54.3085C24.1427 54.2478 24.2258 54.1927 24.3307 54.1462C24.4355 54.0998 24.5599 54.063 24.6969 54.0379C24.8338 54.0128 24.9806 53.9999 25.1287 54H74.874C75.1727 54.0002 75.4591 54.0529 75.6703 54.1467C75.8814 54.2404 76 54.3675 76 54.5C76 54.6325 75.8814 54.7596 75.6703 54.8533C75.4591 54.9471 75.1727 54.9998 74.874 55V55Z" fill="#E6E6E6"/>
<path d="M58.8662 52H25.1352C24.9862 52.0001 24.8386 51.9872 24.7009 51.9621C24.5631 51.937 24.438 51.9002 24.3326 51.8538C24.2271 51.8073 24.1435 51.7522 24.0864 51.6915C24.0294 51.6308 24 51.5657 24 51.5C24 51.4343 24.0294 51.3692 24.0864 51.3085C24.1435 51.2478 24.2271 51.1927 24.3326 51.1462C24.438 51.0998 24.5631 51.063 24.7009 51.0379C24.8386 51.0128 24.9862 50.9999 25.1352 51H58.8662C59.1669 51 59.4553 51.0527 59.6679 51.1464C59.8805 51.2402 60 51.3674 60 51.5C60 51.6326 59.8805 51.7598 59.6679 51.8536C59.4553 51.9473 59.1669 52 58.8662 52Z" fill="#E6E6E6"/>
<path d="M25.7056 90C25.8066 89.9999 25.9065 89.9863 25.9989 89.96C26.0913 89.9337 26.1742 89.8953 26.2421 89.8472L34.2945 84.1999C34.3859 84.1359 34.4969 84.0849 34.6206 84.0499C34.7442 84.0149 34.8777 83.9968 35.0128 83.9967H77.5644C78.2101 83.9962 78.8292 83.8311 79.2858 83.5376C79.7424 83.244 79.9993 82.846 80 82.4309V72.5658C79.9993 72.1507 79.7424 71.7527 79.2858 71.4591C78.8292 71.1656 78.2101 71.0005 77.5644 71H22.4356C21.7899 71.0005 21.1708 71.1656 20.7142 71.4591C20.2576 71.7527 20.0007 72.1507 20 72.5658V82.4309C20.0007 82.846 20.2576 83.244 20.7142 83.5376C21.1708 83.8311 21.7899 83.9963 22.4356 83.9967H23.9985C24.2569 83.9969 24.5046 84.063 24.6872 84.1804C24.8699 84.2979 24.9727 84.4571 24.9729 84.6232V89.5298C24.9723 89.6246 25.0165 89.7172 25.0997 89.7953C25.1829 89.8735 25.3011 89.9336 25.4387 89.9676C25.5237 89.9889 25.6142 89.9999 25.7056 90V90Z" fill="white"/>
<path d="M25.7056 90C25.8066 89.9999 25.9065 89.9863 25.9989 89.96C26.0913 89.9337 26.1742 89.8953 26.2421 89.8472L34.2945 84.1999C34.3859 84.1359 34.4969 84.0849 34.6206 84.0499C34.7442 84.0149 34.8777 83.9968 35.0128 83.9967H77.5644C78.2101 83.9962 78.8292 83.8311 79.2858 83.5376C79.7424 83.244 79.9993 82.846 80 82.4309V72.5658C79.9993 72.1507 79.7424 71.7527 79.2858 71.4591C78.8292 71.1656 78.2101 71.0005 77.5644 71H22.4356C21.7899 71.0005 21.1708 71.1656 20.7142 71.4591C20.2576 71.7527 20.0007 72.1507 20 72.5658V82.4309C20.0007 82.846 20.2576 83.244 20.7142 83.5376C21.1708 83.8311 21.7899 83.9963 22.4356 83.9967H23.9985C24.2569 83.9969 24.5046 84.063 24.6872 84.1804C24.8699 84.2979 24.9727 84.4571 24.9729 84.6232V89.5298C24.9723 89.6246 25.0165 89.7172 25.0997 89.7953C25.1829 89.8735 25.3011 89.9336 25.4387 89.9676C25.5237 89.9889 25.6142 89.9999 25.7056 90ZM77.5644 71.2086C78.1241 71.2091 78.6607 71.3522 79.0564 71.6066C79.4522 71.861 79.6748 72.206 79.6755 72.5658V82.4309C79.6748 82.7907 79.4522 83.1357 79.0564 83.3901C78.6607 83.6445 78.1241 83.7877 77.5644 83.7881H35.0128C34.8328 83.7882 34.6547 83.8123 34.4899 83.8589C34.3251 83.9056 34.1771 83.9736 34.0553 84.0589L26.0029 89.7062C25.9476 89.745 25.8754 89.7721 25.7957 89.7841C25.7161 89.796 25.6326 89.7922 25.5564 89.7731C25.4801 89.7541 25.4146 89.7206 25.3684 89.6772C25.3222 89.6338 25.2975 89.5824 25.2975 89.5298V84.6232C25.2971 84.4018 25.1601 84.1895 24.9166 84.0329C24.6731 83.8764 24.3429 83.7883 23.9985 83.7881H22.4356C21.8759 83.7877 21.3393 83.6445 20.9436 83.3901C20.5478 83.1357 20.3252 82.7907 20.3246 82.4309V72.5658C20.3252 72.206 20.5478 71.861 20.9436 71.6066C21.3393 71.3522 21.8759 71.2091 22.4356 71.2086H77.5644Z" fill="#3F3D56"/>
<path d="M24.1693 81H75.8279C75.9817 81.0001 76.1341 80.9872 76.2763 80.9621C76.4185 80.937 76.5477 80.9002 76.6566 80.8538C76.7655 80.8073 76.8518 80.7522 76.9107 80.6915C76.9697 80.6308 77 80.5657 77 80.5C77 80.4343 76.9697 80.3692 76.9107 80.3085C76.8518 80.2478 76.7655 80.1927 76.6566 80.1462C76.5477 80.0998 76.4185 80.063 76.2763 80.0379C76.1341 80.0128 75.9817 79.9999 75.8279 80H24.1693C23.8591 80.0002 23.5617 80.0529 23.3424 80.1467C23.1232 80.2404 23 80.3675 23 80.5C23 80.6325 23.1232 80.7596 23.3424 80.8533C23.5617 80.9471 23.8591 80.9998 24.1693 81V81Z" fill="#E6E6E6"/>
<path d="M41.1653 78H75.8333C75.9864 78.0001 76.1381 77.9872 76.2797 77.9621C76.4212 77.937 76.5498 77.9002 76.6582 77.8538C76.7666 77.8073 76.8525 77.7522 76.9112 77.6915C76.9698 77.6308 77 77.5657 77 77.5C77 77.4343 76.9698 77.3692 76.9112 77.3085C76.8525 77.2478 76.7666 77.1927 76.6582 77.1462C76.5498 77.0998 76.4212 77.063 76.2797 77.0379C76.1381 77.0128 75.9864 76.9999 75.8333 77H41.1653C40.8562 77 40.5598 77.0527 40.3413 77.1464C40.1228 77.2402 40 77.3674 40 77.5C40 77.6326 40.1228 77.7598 40.3413 77.8536C40.5598 77.9473 40.8562 78 41.1653 78Z" fill="#E6E6E6"/>
<path d="M74.2944 116C74.1934 116 74.0935 115.986 74.0011 115.96C73.9087 115.934 73.8258 115.895 73.7579 115.847L65.7055 110.2C65.6141 110.136 65.5031 110.085 65.3794 110.05C65.2558 110.015 65.1223 109.997 64.9872 109.997H22.4356C21.7899 109.996 21.1708 109.831 20.7142 109.538C20.2576 109.244 20.0007 108.846 20 108.431V98.5658C20.0007 98.1507 20.2576 97.7527 20.7142 97.4591C21.1708 97.1656 21.7899 97.0005 22.4356 97H77.5644C78.2101 97.0005 78.8292 97.1656 79.2858 97.4591C79.7424 97.7527 79.9993 98.1507 80 98.5658V108.431C79.9993 108.846 79.7424 109.244 79.2858 109.538C78.8292 109.831 78.2101 109.996 77.5644 109.997H76.0015C75.7431 109.997 75.4954 110.063 75.3128 110.18C75.1301 110.298 75.0273 110.457 75.0271 110.623V115.53C75.0277 115.625 74.9835 115.717 74.9003 115.795C74.8171 115.874 74.6989 115.934 74.5613 115.968C74.4763 115.989 74.3858 116 74.2944 116V116Z" fill="white"/>
<path d="M74.2944 116C74.1934 116 74.0935 115.986 74.0011 115.96C73.9087 115.934 73.8258 115.895 73.7579 115.847L65.7055 110.2C65.6141 110.136 65.5031 110.085 65.3794 110.05C65.2558 110.015 65.1223 109.997 64.9872 109.997H22.4356C21.7899 109.996 21.1708 109.831 20.7142 109.538C20.2576 109.244 20.0007 108.846 20 108.431V98.5658C20.0007 98.1507 20.2576 97.7527 20.7142 97.4591C21.1708 97.1656 21.7899 97.0005 22.4356 97H77.5644C78.2101 97.0005 78.8292 97.1656 79.2858 97.4591C79.7424 97.7527 79.9993 98.1507 80 98.5658V108.431C79.9993 108.846 79.7424 109.244 79.2858 109.538C78.8292 109.831 78.2101 109.996 77.5644 109.997H76.0015C75.7431 109.997 75.4954 110.063 75.3128 110.18C75.1301 110.298 75.0273 110.457 75.0271 110.623V115.53C75.0277 115.625 74.9835 115.717 74.9003 115.795C74.8171 115.874 74.6989 115.934 74.5613 115.968C74.4763 115.989 74.3858 116 74.2944 116ZM22.4356 97.2086C21.8759 97.2091 21.3393 97.3522 20.9436 97.6066C20.5478 97.861 20.3252 98.206 20.3245 98.5658V108.431C20.3252 108.791 20.5478 109.136 20.9436 109.39C21.3393 109.645 21.8759 109.788 22.4356 109.788H64.9872C65.1672 109.788 65.3453 109.812 65.5101 109.859C65.6749 109.906 65.8229 109.974 65.9447 110.059L73.9971 115.706C74.0524 115.745 74.1246 115.772 74.2043 115.784C74.2839 115.796 74.3674 115.792 74.4436 115.773C74.5199 115.754 74.5854 115.721 74.6316 115.677C74.6778 115.634 74.7025 115.582 74.7025 115.53V110.623C74.7029 110.402 74.8399 110.19 75.0834 110.033C75.3269 109.876 75.6571 109.788 76.0015 109.788H77.5644C78.1241 109.788 78.6607 109.645 79.0564 109.39C79.4522 109.136 79.6748 108.791 79.6754 108.431V98.5658C79.6748 98.206 79.4522 97.861 79.0564 97.6066C78.6607 97.3522 78.1241 97.2091 77.5644 97.2086H22.4356Z" fill="#3F3D56"/>
<path d="M74.874 107H25.1287C24.9806 107 24.8338 106.987 24.6969 106.962C24.5599 106.937 24.4355 106.9 24.3307 106.854C24.2258 106.807 24.1427 106.752 24.0859 106.691C24.0292 106.631 24 106.566 24 106.5C24 106.434 24.0292 106.369 24.0859 106.309C24.1427 106.248 24.2258 106.193 24.3307 106.146C24.4355 106.1 24.5599 106.063 24.6969 106.038C24.8338 106.013 24.9806 106 25.1287 106H74.874C75.1727 106 75.4591 106.053 75.6703 106.147C75.8814 106.24 76 106.367 76 106.5C76 106.633 75.8814 106.76 75.6703 106.853C75.4591 106.947 75.1727 107 74.874 107V107Z" fill="#E6E6E6"/>
<path d="M58.8662 104H25.1352C24.9862 104 24.8386 103.987 24.7009 103.962C24.5631 103.937 24.438 103.9 24.3326 103.854C24.2271 103.807 24.1435 103.752 24.0864 103.691C24.0294 103.631 24 103.566 24 103.5C24 103.434 24.0294 103.369 24.0864 103.309C24.1435 103.248 24.2271 103.193 24.3326 103.146C24.438 103.1 24.5631 103.063 24.7009 103.038C24.8386 103.013 24.9862 103 25.1352 103H58.8662C59.1669 103 59.4553 103.053 59.6679 103.146C59.8805 103.24 60 103.367 60 103.5C60 103.633 59.8805 103.76 59.6679 103.854C59.4553 103.947 59.1669 104 58.8662 104Z" fill="#E6E6E6"/>
<path d="M25.7056 142C25.8066 142 25.9065 141.986 25.9989 141.96C26.0913 141.934 26.1742 141.895 26.2421 141.847L34.2945 136.2C34.3859 136.136 34.4969 136.085 34.6206 136.05C34.7442 136.015 34.8777 135.997 35.0128 135.997H77.5644C78.2101 135.996 78.8292 135.831 79.2858 135.538C79.7424 135.244 79.9993 134.846 80 134.431V124.566C79.9993 124.151 79.7424 123.753 79.2858 123.459C78.8292 123.166 78.2101 123 77.5644 123H22.4356C21.7899 123 21.1708 123.166 20.7142 123.459C20.2576 123.753 20.0007 124.151 20 124.566V134.431C20.0007 134.846 20.2576 135.244 20.7142 135.538C21.1708 135.831 21.7899 135.996 22.4356 135.997H23.9985C24.2569 135.997 24.5046 136.063 24.6872 136.18C24.8699 136.298 24.9727 136.457 24.9729 136.623V141.53C24.9723 141.625 25.0165 141.717 25.0997 141.795C25.1829 141.874 25.3011 141.934 25.4387 141.968C25.5237 141.989 25.6142 142 25.7056 142V142Z" fill="white"/>
<path d="M25.7056 142C25.8066 142 25.9065 141.986 25.9989 141.96C26.0913 141.934 26.1742 141.895 26.2421 141.847L34.2945 136.2C34.3859 136.136 34.4969 136.085 34.6206 136.05C34.7442 136.015 34.8777 135.997 35.0128 135.997H77.5644C78.2101 135.996 78.8292 135.831 79.2858 135.538C79.7424 135.244 79.9993 134.846 80 134.431V124.566C79.9993 124.151 79.7424 123.753 79.2858 123.459C78.8292 123.166 78.2101 123 77.5644 123H22.4356C21.7899 123 21.1708 123.166 20.7142 123.459C20.2576 123.753 20.0007 124.151 20 124.566V134.431C20.0007 134.846 20.2576 135.244 20.7142 135.538C21.1708 135.831 21.7899 135.996 22.4356 135.997H23.9985C24.2569 135.997 24.5046 136.063 24.6872 136.18C24.8699 136.298 24.9727 136.457 24.9729 136.623V141.53C24.9723 141.625 25.0165 141.717 25.0997 141.795C25.1829 141.874 25.3011 141.934 25.4387 141.968C25.5237 141.989 25.6142 142 25.7056 142ZM77.5644 123.209C78.1241 123.209 78.6607 123.352 79.0564 123.607C79.4522 123.861 79.6748 124.206 79.6755 124.566V134.431C79.6748 134.791 79.4522 135.136 79.0564 135.39C78.6607 135.645 78.1241 135.788 77.5644 135.788H35.0128C34.8328 135.788 34.6547 135.812 34.4899 135.859C34.3251 135.906 34.1771 135.974 34.0553 136.059L26.0029 141.706C25.9476 141.745 25.8754 141.772 25.7957 141.784C25.7161 141.796 25.6326 141.792 25.5564 141.773C25.4801 141.754 25.4146 141.721 25.3684 141.677C25.3222 141.634 25.2975 141.582 25.2975 141.53V136.623C25.2971 136.402 25.1601 136.19 24.9166 136.033C24.6731 135.876 24.3429 135.788 23.9985 135.788H22.4356C21.8759 135.788 21.3393 135.645 20.9436 135.39C20.5478 135.136 20.3252 134.791 20.3246 134.431V124.566C20.3252 124.206 20.5478 123.861 20.9436 123.607C21.3393 123.352 21.8759 123.209 22.4356 123.209H77.5644Z" fill="#3F3D56"/>
<path d="M24.1693 133H75.8279C75.9817 133 76.1341 132.987 76.2763 132.962C76.4185 132.937 76.5477 132.9 76.6566 132.854C76.7655 132.807 76.8518 132.752 76.9107 132.691C76.9697 132.631 77 132.566 77 132.5C77 132.434 76.9697 132.369 76.9107 132.309C76.8518 132.248 76.7655 132.193 76.6566 132.146C76.5477 132.1 76.4185 132.063 76.2763 132.038C76.1341 132.013 75.9817 132 75.8279 132H24.1693C23.8591 132 23.5617 132.053 23.3424 132.147C23.1232 132.24 23 132.367 23 132.5C23 132.633 23.1232 132.76 23.3424 132.853C23.5617 132.947 23.8591 133 24.1693 133V133Z" fill="#E6E6E6"/>
<path d="M41.1653 130H75.8333C75.9864 130 76.1381 129.987 76.2797 129.962C76.4212 129.937 76.5498 129.9 76.6582 129.854C76.7666 129.807 76.8525 129.752 76.9112 129.691C76.9698 129.631 77 129.566 77 129.5C77 129.434 76.9698 129.369 76.9112 129.309C76.8525 129.248 76.7666 129.193 76.6582 129.146C76.5498 129.1 76.4212 129.063 76.2797 129.038C76.1381 129.013 75.9864 129 75.8333 129H41.1653C40.8562 129 40.5598 129.053 40.3413 129.146C40.1228 129.24 40 129.367 40 129.5C40 129.633 40.1228 129.76 40.3413 129.854C40.5598 129.947 40.8562 130 41.1653 130Z" fill="#E6E6E6"/>
<path d="M28 33.627C26.5124 34.4981 24.7889 34.9732 23.0226 34.9989C21.2564 35.0246 19.5172 34.5999 18 33.7725C18.2669 33.3181 18.6051 32.9019 19.0038 32.5371C19.619 31.9718 20.3676 31.543 21.1923 31.2836C22.017 31.0243 22.8957 30.9412 23.7609 31.0409C24.6261 31.1406 25.4548 31.4203 26.1834 31.8586C26.912 32.297 27.521 32.8822 27.9637 33.5693C27.9754 33.5879 27.9882 33.6074 28 33.627Z" fill="#4A90E2"/>
<path d="M22.5 29C24.9853 29 27 27.433 27 25.5C27 23.567 24.9853 22 22.5 22C20.0147 22 18 23.567 18 25.5C18 27.433 20.0147 29 22.5 29Z" fill="#2F2E41"/>
<path d="M26.2702 28.2313C27.1493 26.8041 26.5583 25.0147 24.9502 24.2345C23.342 23.4543 21.3258 23.9788 20.4467 25.406C19.5676 26.8333 20.1586 28.6227 21.7667 29.4029C23.3749 30.1831 25.3911 29.6585 26.2702 28.2313Z" fill="#FFB8B8"/>
<path d="M20 25.2023C20.7032 25.85 21.5377 26.1948 22.3917 26.1902C22.0871 26.4725 21.7403 26.6632 21.3752 26.7491C22.5107 27.0747 23.6842 27.0835 24.8223 26.775C25.0752 26.7208 25.3193 26.6088 25.5439 26.4438C25.6557 26.3603 25.7532 26.2462 25.83 26.1091C25.9067 25.9719 25.961 25.8147 25.9893 25.6476C26.0649 25.0702 25.7282 24.5456 25.3784 24.192C24.8427 23.6589 24.2251 23.2917 23.5702 23.1168C22.9154 22.9419 22.2396 22.9637 21.5918 23.1807C21.1688 23.3268 20.7451 23.5737 20.4703 24.0277C20.1956 24.4818 20.1142 25.1817 20.376 25.6492L20 25.2023Z" fill="#2F2E41"/>
<path d="M23.4971 35C21.2113 34.9994 19.0025 34.3048 17.2757 33.0437C15.5489 31.7826 14.42 30.0395 14.096 28.1341C13.7719 26.2287 14.2746 24.2888 15.5116 22.6702C16.7487 21.0517 18.6373 19.863 20.831 19.3222C23.0246 18.7814 25.3763 18.9248 27.4546 19.7261C29.5328 20.5273 31.1984 21.9327 32.1457 23.6844C33.093 25.4362 33.2586 27.4168 32.612 29.263C31.9654 31.1092 30.5501 32.6972 28.6256 33.7357C27.0952 34.5621 25.3151 35.0009 23.4971 35V35ZM23.4971 19.1729C21.6591 19.1727 19.8623 19.6316 18.334 20.4914C16.8057 21.3512 15.6145 22.5733 14.9111 24.0033C14.2076 25.4332 14.0235 27.0067 14.3821 28.5247C14.7406 30.0428 15.6256 31.4372 16.9253 32.5316C18.2249 33.6261 19.8808 34.3714 21.6835 34.6733C23.4862 34.9752 25.3547 34.8202 27.0527 34.2278C28.7508 33.6355 30.2021 32.6323 31.2231 31.3453C32.2441 30.0584 32.789 28.5453 32.7888 26.9975C32.786 24.923 31.8062 22.9341 30.0643 21.4672C28.3223 20.0003 25.9605 19.1752 23.4971 19.1729V19.1729Z" fill="#3F3D56"/>
<path d="M79.3066 138C82.8965 138 85.8066 137.552 85.8066 137C85.8066 136.448 82.8965 136 79.3066 136C75.7168 136 72.8066 136.448 72.8066 137C72.8066 137.552 75.7168 138 79.3066 138Z" fill="#F2F2F2"/>
</svg>
