<svg width="40" height="40" viewBox="0 0 40 40" fill="none" xmlns="http://www.w3.org/2000/svg">
<path d="M19.9946 26.6695C16.3222 26.6695 13.3252 23.6725 13.3252 20C13.3252 16.3275 16.3222 13.3305 19.9946 13.3305C23.667 13.3305 26.664 16.3275 26.664 20C26.664 23.6725 23.667 26.6695 19.9946 26.6695ZM39.9978 20C39.9978 22.7619 40.0228 25.4987 39.8677 28.2556C39.7126 31.4577 38.9821 34.2997 36.6406 36.6412C34.294 38.9878 31.4572 39.7133 28.2551 39.8684C25.4932 40.0235 22.7564 39.9985 19.9996 39.9985C17.2378 39.9985 14.501 40.0235 11.7442 39.8684C8.5421 39.7133 5.70023 38.9828 3.35869 36.6412C1.01215 34.2947 0.286675 31.4577 0.131574 28.2556C-0.0235283 25.4937 0.0014882 22.7569 0.0014882 20C0.0014882 17.2431 -0.0235283 14.5013 0.131574 11.7444C0.286675 8.54226 1.01716 5.70034 3.35869 3.35876C5.70524 1.01217 8.5421 0.286683 11.7442 0.131578C14.506 -0.0235264 17.2428 0.00148863 19.9996 0.00148863C22.7614 0.00148863 25.4982 -0.0235264 28.2551 0.131578C31.4572 0.286683 34.299 1.01718 36.6406 3.35876C38.9871 5.70534 39.7126 8.54226 39.8677 11.7444C40.0278 14.5013 39.9978 17.2381 39.9978 20V20ZM19.9946 9.73807C14.3159 9.73807 9.73288 14.3212 9.73288 20C9.73288 25.6788 14.3159 30.2619 19.9946 30.2619C25.6734 30.2619 30.2564 25.6788 30.2564 20C30.2564 14.3212 25.6734 9.73807 19.9946 9.73807ZM30.6766 28.2856C29.3508 28.2856 28.2801 29.3563 28.2801 30.6822C28.2801 32.0081 29.3508 33.0788 30.6766 33.0788C32.0025 33.0788 33.0732 32.0081 33.0732 30.6822C33.0736 30.3674 33.0119 30.0556 32.8916 29.7646C32.7713 29.4737 32.5948 29.2093 32.3722 28.9867C32.1495 28.764 31.8852 28.5875 31.5942 28.4672C31.3033 28.3469 30.9915 28.2852 30.6766 28.2856V28.2856Z" fill="#4A90E2"/>
</svg>
